<?xml version="1.0" standalone="no"?><!DOCTYPE svg PUBLIC "-//W3C//DTD SVG 1.1//EN" "http://www.w3.org/Graphics/SVG/1.1/DTD/svg11.dtd"><svg xmlns="http://www.w3.org/2000/svg" version="1.1" width="475.667" height="792" xmlns:xlink="http://www.w3.org/1999/xlink" xlink="http://www.w3.org/1999/xlink" style="position:relative;overflow:hidden;" viewBox="233.833 -2.167 475.667 792"><defs/><g><g width="93.667" height="0" transform="scale(1,1) translate(425.333,37.667)"><g fill="#545454" stroke="#545454" stroke-opacity="1" transform="scale(1,1) translate(0,0)"><path fill="none" stroke-width="1" stroke-dasharray="none" d="M0,0 L0,0 M0,0 L0,0 M93.667,0 L93.667,0 M0,0 L0,0"/><g><g stroke-dasharray="none"><path d="M0,0L-10,0L-10,-10L0,-10z" stroke-width="0" fill="none"/></g></g></g></g><g width="0" height="712.333" transform="scale(1,1) translate(471.667,65)"><g fill="#545454" stroke="#545454" stroke-opacity="1" transform="scale(1,1) translate(0,0)"><path fill="none" stroke-width="1" stroke-dasharray="none" d="M0,23.167 L0,23.167 M0,0 L0,13.167 M0,712.333 L0,712.333 M0,23.167 L0,23.167 M0,184.5 L0,219.5 M0,366.833 L0,383.167 M0,469.5 L0,489 M0,530.167 L0,543.333 M0,605.167 L0,624.667"/><g><g stroke-dasharray="none"><path d="M5,13.167L0,23.167L-5,13.167z" stroke="none" fill-opacity="1"/></g><g stroke-dasharray="none"><path d="M5,219.5L0,229.5L-5,219.5z" stroke="none" fill-opacity="1"/></g><g stroke-dasharray="none"><path d="M5,383.167L0,393.167L-5,383.167z" stroke="none" fill-opacity="1"/></g><g stroke-dasharray="none"><path d="M5,489L0,499L-5,489z" stroke="none" fill-opacity="1"/></g><g stroke-dasharray="none"><path d="M5,543.333L0,553.333L-5,543.333z" stroke="none" fill-opacity="1"/></g><g stroke-dasharray="none"><path d="M5,624.667L0,634.667L-5,624.667z" stroke="none" fill-opacity="1"/></g></g></g><g stroke-width="0" stroke-dasharray="none" fill="#FFFFFF" opacity="1" width="12.042" height="17.625" transform="scale(1,1) translate(-6.021,2.771)"><rect width="12.042" height="17.625"/></g><g width="10.042317390441895" height="23.166666666666664" transform="scale(1,1) translate(-5.021,3.771)"><text width="10.042317390441895" height="15.624999046325684" transform="scale(1,1) translate(0,0)" xml:space="preserve"><tspan xml:space="preserve" text-rendering="optimizeSpeed" font-size="13.88888888888889" font-weight="normal" font-style="normal" text-decoration="none" fill="#333333" opacity="1" x="0" text-anchor="start" y="12.5" textLength="10.042317390441895" style="font-family: Arial, Helvetica Neue, Helvetica, sans-serif;">N</tspan></text></g></g><g width="92.667" height="54.667" transform="scale(1,1) translate(425.333,10.333)"><g transform="scale(1,1) translate(0,0)" stroke="#FBD585" fill="#FBD585" fill-opacity="1" stroke-opacity="1"><path d="M27,0 L20.925,0.692 L18.465,1.385 L16.615,2.077 L15.089,2.769 L13.773,3.462 L12.611,4.154 L11.566,4.846 L10.617,5.538 L9.748,6.231 L8.947,6.923 L8.205,7.615 L7.517,8.308 L6.875,9 L6.277,9.692 L5.718,10.385 L5.195,11.077 L4.706,11.769 L4.248,12.462 L3.821,13.154 L3.421,13.846 L3.048,14.538 L2.7,15.231 L2.377,15.923 L2.077,16.615 L1.8,17.308 L1.544,18 L1.31,18.692 L1.096,19.385 L0.903,20.077 L0.729,20.769 L0.574,21.462 L0.438,22.154 L0.321,22.846 L0.223,23.538 L0.142,24.231 L0.08,24.923 L0.036,25.615 L0.009,26.308 L0,27 L0,27.667 L0.009,28.359 L0.036,29.051 L0.08,29.744 L0.142,30.436 L0.223,31.128 L0.321,31.821 L0.438,32.513 L0.574,33.205 L0.729,33.897 L0.903,34.59 L1.096,35.282 L1.31,35.974 L1.544,36.667 L1.8,37.359 L2.077,38.051 L2.377,38.744 L2.7,39.436 L3.048,40.128 L3.421,40.821 L3.821,41.513 L4.248,42.205 L4.706,42.897 L5.195,43.59 L5.718,44.282 L6.277,44.974 L6.875,45.667 L7.517,46.359 L8.205,47.051 L8.947,47.744 L9.748,48.436 L10.617,49.128 L11.566,49.821 L12.611,50.513 L13.773,51.205 L15.089,51.897 L16.615,52.59 L18.465,53.282 L20.925,53.974 L27,54.667 L65.667,54.667 L71.742,53.974 L74.202,53.282 L76.051,52.59 L77.578,51.897 L78.893,51.205 L80.056,50.513 L81.101,49.821 L82.05,49.128 L82.919,48.436 L83.72,47.744 L84.461,47.051 L85.15,46.359 L85.791,45.667 L86.39,44.974 L86.949,44.282 L87.472,43.59 L87.961,42.897 L88.418,42.205 L88.846,41.513 L89.246,40.821 L89.619,40.128 L89.967,39.436 L90.29,38.744 L90.59,38.051 L90.867,37.359 L91.123,36.667 L91.357,35.974 L91.57,35.282 L91.764,34.59 L91.938,33.897 L92.093,33.205 L92.228,32.513 L92.345,31.821 L92.444,31.128 L92.524,30.436 L92.587,29.744 L92.631,29.051 L92.658,28.359 L92.667,27.667 L92.667,27 L92.658,26.308 L92.631,25.615 L92.587,24.923 L92.524,24.231 L92.444,23.538 L92.345,22.846 L92.228,22.154 L92.093,21.462 L91.938,20.769 L91.764,20.077 L91.57,19.385 L91.357,18.692 L91.123,18 L90.867,17.308 L90.59,16.615 L90.29,15.923 L89.967,15.231 L89.619,14.538 L89.246,13.846 L88.846,13.154 L88.418,12.462 L87.961,11.769 L87.472,11.077 L86.949,10.385 L86.39,9.692 L85.791,9 L85.15,8.308 L84.461,7.615 L83.72,6.923 L82.919,6.231 L82.05,5.538 L81.101,4.846 L80.056,4.154 L78.893,3.462 L77.578,2.769 L76.051,2.077 L74.202,1.385 L71.742,0.692 L65.667,0 L27,0 z" stroke-width="1" stroke-dasharray="none"/></g><g width="60.83333333333333" height="34" transform="scale(1,1) translate(16,10.333)"><text width="60.83333333333333" height="15.624999046325684" transform="scale(1,1) translate(0,9.187500476837158)" xml:space="preserve"><tspan xml:space="preserve" text-rendering="optimizeSpeed" font-size="13.88888888888889" font-weight="normal" font-style="normal" text-decoration="none" fill="#333333" opacity="1" x="3.024" text-anchor="start" y="12.5" textLength="54.785152435302734" style="font-family: Arial, Helvetica Neue, Helvetica, sans-serif;">Enter Url</tspan></text></g></g><g width="316" height="160.333" transform="scale(1,1) translate(313.667,88.167)"><g stroke="#B3D7EE" stroke-opacity="1" stroke-width="1" stroke-dasharray="none" width="316" height="160.333" transform="scale(1,1) translate(0,0)" fill="#B3D7EE" fill-opacity="1"><rect width="316" height="160.333"/></g><g width="311" height="155.33333333333331" transform="scale(1,1) translate(2.5,2.5)"><text width="311" height="153.125" transform="scale(1,1) translate(0,0)" xml:space="preserve"><tspan xml:space="preserve" text-rendering="optimizeSpeed" font-size="19.444444444444443" font-weight="normal" font-style="normal" text-decoration="none" fill="#333333" opacity="1" x="50.707" text-anchor="start" y="17.708" textLength="209.58657836914062" style="font-family: Arial, Helvetica Neue, Helvetica, sans-serif;">Browser check in Cache</tspan><tspan xml:space="preserve" text-rendering="optimizeSpeed" font-size="19.444444444444443" font-weight="normal" font-style="normal" text-decoration="none" fill="#333333" opacity="1" x="0" text-anchor="start" y="61.458" textLength="176.09048461914062" style="font-family: Arial, Helvetica Neue, Helvetica, sans-serif;">    1. Browser Cache</tspan><tspan xml:space="preserve" text-rendering="optimizeSpeed" font-size="19.444444444444443" font-weight="normal" font-style="normal" text-decoration="none" fill="#333333" opacity="1" x="0" text-anchor="start" y="83.333" textLength="128.58071899414062" style="font-family: Arial, Helvetica Neue, Helvetica, sans-serif;">    2. OS cache</tspan><tspan xml:space="preserve" text-rendering="optimizeSpeed" font-size="19.444444444444443" font-weight="normal" font-style="normal" text-decoration="none" fill="#333333" opacity="1" x="0" text-anchor="start" y="105.208" textLength="158.837890625" style="font-family: Arial, Helvetica Neue, Helvetica, sans-serif;">    3. Router cache</tspan><tspan xml:space="preserve" text-rendering="optimizeSpeed" font-size="19.444444444444443" font-weight="normal" font-style="normal" text-decoration="none" fill="#333333" opacity="1" x="0" text-anchor="start" y="127.083" textLength="131.4453125" style="font-family: Arial, Helvetica Neue, Helvetica, sans-serif;">    4. ISP cache</tspan></text></g></g><g width="387.333" height="136.333" transform="scale(1,1) translate(278,294.5)"><g stroke="#B3D7EE" stroke-opacity="1" stroke-width="1" stroke-dasharray="none" width="387.333" height="136.333" transform="scale(1,1) translate(0,0)" fill="#B3D7EE" fill-opacity="1"><rect width="387.333" height="136.333"/></g><g width="382.3333333333333" height="131.33333333333331" transform="scale(1,1) translate(2.5,2.5)"><text width="382.3333333333333" height="131.25" transform="scale(1,1) translate(0,0)" xml:space="preserve"><tspan xml:space="preserve" text-rendering="optimizeSpeed" font-size="19.444444444444443" font-weight="normal" font-style="normal" text-decoration="none" fill="#333333" opacity="1" x="0" text-anchor="start" y="17.708" textLength="178.28775024414062" style="font-family: Arial, Helvetica Neue, Helvetica, sans-serif;">If Not found in cache</tspan><tspan xml:space="preserve" text-rendering="optimizeSpeed" font-size="19.444444444444443" font-weight="normal" font-style="normal" text-decoration="none" fill="#333333" opacity="1" x="0" text-anchor="start" y="39.583" textLength="355.8756408691406" style="font-family: Arial, Helvetica Neue, Helvetica, sans-serif;">ISP's DNS server initiates query to find Ip</tspan><tspan xml:space="preserve" text-rendering="optimizeSpeed" font-size="19.444444444444443" font-weight="normal" font-style="normal" text-decoration="none" fill="#333333" opacity="1" x="0" text-anchor="start" y="61.458" textLength="263.623046875" style="font-family: Arial, Helvetica Neue, Helvetica, sans-serif;">Address Associated to the DN.</tspan><tspan xml:space="preserve" text-rendering="optimizeSpeed" font-size="19.444444444444443" font-weight="normal" font-style="normal" text-decoration="none" fill="#333333" opacity="1" x="0" text-anchor="start" y="105.208" textLength="365.1529846191406" style="font-family: Arial, Helvetica Neue, Helvetica, sans-serif;">Request are sent using small Packets with</tspan><tspan xml:space="preserve" text-rendering="optimizeSpeed" font-size="19.444444444444443" font-weight="normal" font-style="normal" text-decoration="none" fill="#333333" opacity="1" x="0" text-anchor="start" y="127.083" textLength="72.39584350585938" style="font-family: Arial, Helvetica Neue, Helvetica, sans-serif;">info in it.</tspan></text></g></g><g width="374.167" height="75.333" transform="scale(1,1) translate(284.667,458.167)"><g stroke="#B3D7EE" stroke-opacity="1" stroke-width="1" stroke-dasharray="none" width="374.167" height="75.333" transform="scale(1,1) translate(0,0)" fill="#B3D7EE" fill-opacity="1"><rect width="374.167" height="75.333"/></g><g width="369.16666666666663" height="70.33333333333333" transform="scale(1,1) translate(2.5,2.5)"><text width="369.16666666666663" height="65.625" transform="scale(1,1) translate(0,0)" xml:space="preserve"><tspan xml:space="preserve" text-rendering="optimizeSpeed" font-size="19.444444444444443" font-weight="normal" font-style="normal" text-decoration="none" fill="#333333" opacity="1" x="0" text-anchor="start" y="17.708" textLength="326.6275939941406" style="font-family: Arial, Helvetica Neue, Helvetica, sans-serif;">Browser Initiates TCP connection with</tspan><tspan xml:space="preserve" text-rendering="optimizeSpeed" font-size="19.444444444444443" font-weight="normal" font-style="normal" text-decoration="none" fill="#333333" opacity="1" x="0" text-anchor="start" y="39.583" textLength="352.2135009765625" style="font-family: Arial, Helvetica Neue, Helvetica, sans-serif;">server using synchronise &amp; acknowledge</tspan><tspan xml:space="preserve" text-rendering="optimizeSpeed" font-size="19.444444444444443" font-weight="normal" font-style="normal" text-decoration="none" fill="#333333" opacity="1" x="0" text-anchor="start" y="61.458" textLength="84.27734375" style="font-family: Arial, Helvetica Neue, Helvetica, sans-serif;">message.</tspan></text></g></g><g width="396" height="30.167" transform="scale(1,1) translate(273.667,564)"><g stroke="#B3D7EE" stroke-opacity="1" stroke-width="1" stroke-dasharray="none" width="396" height="30.167" transform="scale(1,1) translate(0,0)" fill="#B3D7EE" fill-opacity="1"><rect width="396" height="30.167"/></g><g width="391" height="25.166666666666664" transform="scale(1,1) translate(2.5,2.5)"><text width="391" height="21.875" transform="scale(1,1) translate(0,0)" xml:space="preserve"><tspan xml:space="preserve" text-rendering="optimizeSpeed" font-size="19.444444444444443" font-weight="normal" font-style="normal" text-decoration="none" fill="#333333" opacity="1" x="0" text-anchor="start" y="17.708" textLength="380.98956298828125" style="font-family: Arial, Helvetica Neue, Helvetica, sans-serif;">Browser sends HTTP request to web server.</tspan></text></g></g><g width="450.667" height="50.833" transform="scale(1,1) translate(246.333,618.333)"><g stroke="#B3D7EE" stroke-opacity="1" stroke-width="1" stroke-dasharray="none" width="450.667" height="50.833" transform="scale(1,1) translate(0,0)" fill="#B3D7EE" fill-opacity="1"><rect width="450.667" height="50.833"/></g><g width="445.66666666666663" height="45.83333333333333" transform="scale(1,1) translate(2.5,2.5)"><text width="445.66666666666663" height="43.75" transform="scale(1,1) translate(0,1.0416666666666643)" xml:space="preserve"><tspan xml:space="preserve" text-rendering="optimizeSpeed" font-size="19.444444444444443" font-weight="normal" font-style="normal" text-decoration="none" fill="#333333" opacity="1" x="13.784" text-anchor="start" y="17.708" textLength="412.6952819824219" style="font-family: Arial, Helvetica Neue, Helvetica, sans-serif;">Server takes request and Response with JSON,</tspan><tspan xml:space="preserve" text-rendering="optimizeSpeed" font-size="19.444444444444443" font-weight="normal" font-style="normal" text-decoration="none" fill="#333333" opacity="1" x="169.708" text-anchor="start" y="39.583" textLength="106.25" style="font-family: Arial, Helvetica Neue, Helvetica, sans-serif;">HTML page.</tspan></text></g></g><g width="153.333" height="76.667" transform="scale(1,1) translate(395,699.667)"><g stroke="#B3D7EE" stroke-opacity="1" stroke-width="1" stroke-dasharray="none" width="153.333" height="76.667" transform="scale(1,1) translate(0,0)" fill="#B3D7EE" fill-opacity="1"><rect width="153.333" height="76.667"/></g><g width="148.33333333333331" height="71.66666666666666" transform="scale(1,1) translate(2.5,2.5)"><text width="148.33333333333331" height="65.625" transform="scale(1,1) translate(0,3.0208333333333286)" xml:space="preserve"><tspan xml:space="preserve" text-rendering="optimizeSpeed" font-size="19.444444444444443" font-weight="normal" font-style="normal" text-decoration="none" fill="#333333" opacity="1" x="35.828" text-anchor="start" y="17.708" textLength="71.27278137207031" style="font-family: Arial, Helvetica Neue, Helvetica, sans-serif;">Browser</tspan><tspan xml:space="preserve" text-rendering="optimizeSpeed" font-size="19.444444444444443" font-weight="normal" font-style="normal" text-decoration="none" fill="#333333" opacity="1" x="0.697" text-anchor="start" y="39.583" textLength="146.94010162353516" style="font-family: Arial, Helvetica Neue, Helvetica, sans-serif;">Displays Content</tspan></text></g></g></g></svg>